<svg width="18" height="19" viewBox="0 0 18 19" fill="none" xmlns="http://www.w3.org/2000/svg">
<g id="emojione-v1:white-heavy-check-mark" clip-path="url(#clip0_1705_738)">
<path id="Vector" d="M17.3986 16.4041C17.3986 16.8993 17.2019 17.3743 16.8517 17.7245C16.5015 18.0747 16.0266 18.2715 15.5314 18.2716H1.94021C1.44497 18.2715 0.970038 18.0747 0.619876 17.7245C0.269713 17.3743 0.072998 16.8993 0.072998 16.4041L0.072998 2.8135C0.0733577 2.3184 0.270197 1.84367 0.620289 1.49358C0.970382 1.14349 1.44511 0.946649 1.94021 0.946289L15.5314 0.946289C16.0265 0.946433 16.5014 1.1432 16.8515 1.49334C17.2017 1.84348 17.3984 2.31833 17.3986 2.8135V16.4041Z" fill="#FF5846"/>
<path id="Vector_2" d="M14.7029 4.78686C14.448 4.56916 14.1171 4.46157 13.7829 4.48775C13.4488 4.51393 13.1386 4.67173 12.9207 4.92646L7.47798 11.2918L4.54992 8.84747C4.434 8.74776 4.29942 8.67208 4.154 8.62484C4.00858 8.5776 3.85522 8.55974 3.70283 8.57229C3.55044 8.58484 3.40207 8.62755 3.26634 8.69795C3.1306 8.76835 3.01022 8.86503 2.91218 8.98236C2.81414 9.0997 2.7404 9.23535 2.69525 9.38143C2.6501 9.52752 2.63443 9.68112 2.64917 9.83331C2.6639 9.9855 2.70874 10.1332 2.78108 10.268C2.85342 10.4027 2.95181 10.5217 3.07054 10.618L6.99346 13.8934C7.11439 13.9943 7.25483 14.0692 7.406 14.1134C7.55716 14.1576 7.71582 14.1702 7.87206 14.1504C8.03778 14.1376 8.19935 14.0923 8.34751 14.017C8.49567 13.9417 8.62751 13.8378 8.73546 13.7115L14.8417 6.56852C15.0591 6.31347 15.1665 5.98261 15.1403 5.6485C15.114 5.3144 14.9564 5.00433 14.7019 4.78632" fill="#F4F4F4"/>
</g>
<defs>
<clipPath id="clip0_1705_738">
<rect width="17.3821" height="17.3821" fill="white" transform="translate(0.072998 0.946289)"/>
</clipPath>
</defs>
</svg>
