<svg width="20" height="21" viewBox="0 0 20 21" fill="none" xmlns="http://www.w3.org/2000/svg">
<g id="gravity-ui:delete" clip-path="url(#clip0_1705_870)">
<path id="Vector" fill-rule="evenodd" clip-rule="evenodd" d="M6.79952 5.17508H15.5751C16.0697 5.17508 16.5441 5.37157 16.8938 5.72133C17.2436 6.07109 17.4401 6.54546 17.4401 7.0401V14.5002C17.4401 14.9948 17.2436 15.4692 16.8938 15.8189C16.5441 16.1687 16.0697 16.3652 15.5751 16.3652H6.79952C6.51988 16.3651 6.24383 16.3022 5.99181 16.181C5.73979 16.0598 5.51824 15.8836 5.34356 15.6652L2.26628 11.8195C2.02777 11.5218 1.8978 11.1516 1.8978 10.7701C1.8978 10.3886 2.02777 10.0185 2.26628 9.72075L5.34356 5.87508C5.51798 5.65704 5.73913 5.48095 5.99069 5.35979C6.24225 5.23864 6.51781 5.17551 6.79703 5.17508M3.88387 4.71007C4.23362 4.27284 4.67732 3.91996 5.18206 3.67761C5.68679 3.43525 6.23961 3.30963 6.79952 3.31006H15.5751C16.5643 3.31006 17.5131 3.70304 18.2126 4.40256C18.9121 5.10208 19.3051 6.05083 19.3051 7.0401V14.5002C19.3051 15.4894 18.9121 16.4382 18.2126 17.1377C17.5131 17.8372 16.5643 18.2302 15.5751 18.2302H6.79952C6.24003 18.2303 5.6877 18.1045 5.18342 17.8621C4.67915 17.6198 4.23585 17.2671 3.88636 16.8302L0.810318 12.9845C0.30728 12.3561 0.0332031 11.5751 0.0332031 10.7701C0.0332031 9.96516 0.30728 9.18418 0.810318 8.55574L3.88387 4.71007ZM9.08479 7.62447C8.90801 7.45975 8.67421 7.37008 8.43262 7.37434C8.19104 7.3786 7.96054 7.47647 7.78969 7.64732C7.61884 7.81817 7.52097 8.04867 7.51671 8.29025C7.51245 8.53184 7.60212 8.76565 7.76684 8.94242L9.59456 10.7701L7.76684 12.5979C7.67522 12.6832 7.60174 12.7862 7.55077 12.9006C7.4998 13.0149 7.4724 13.1384 7.47019 13.2636C7.46798 13.3888 7.49101 13.5132 7.53791 13.6293C7.58481 13.7454 7.65462 13.8509 7.74317 13.9395C7.83172 14.028 7.9372 14.0978 8.05331 14.1447C8.16942 14.1916 8.29379 14.2147 8.419 14.2125C8.54421 14.2102 8.66769 14.1828 8.78208 14.1319C8.89647 14.0809 8.99942 14.0074 9.08479 13.9158L10.9125 12.0881L12.7402 13.9158C12.8256 14.0074 12.9285 14.0809 13.0429 14.1319C13.1573 14.1828 13.2808 14.2102 13.406 14.2125C13.5312 14.2147 13.6556 14.1916 13.7717 14.1447C13.8878 14.0978 13.9933 14.028 14.0818 13.9395C14.1704 13.8509 14.2402 13.7454 14.2871 13.6293C14.334 13.5132 14.357 13.3888 14.3548 13.2636C14.3526 13.1384 14.3252 13.0149 14.2742 12.9006C14.2233 12.7862 14.1498 12.6832 14.0582 12.5979L12.2305 10.7701L14.0582 8.94242C14.2229 8.76565 14.3126 8.53184 14.3083 8.29025C14.304 8.04867 14.2062 7.81817 14.0353 7.64732C13.8645 7.47647 13.634 7.3786 13.3924 7.37434C13.1508 7.37008 12.917 7.45975 12.7402 7.62447L10.9125 9.45219L9.08479 7.62447Z" fill="#848484"/>
</g>
<defs>
<clipPath id="clip0_1705_870">
<rect width="19.8935" height="19.8935" fill="white" transform="translate(0.0332031 0.823242)"/>
</clipPath>
</defs>
</svg>
