<svg width="21" height="21" viewBox="0 0 21 21" fill="none" xmlns="http://www.w3.org/2000/svg">
<g id="tabler:edit">
<g id="Group">
<path id="Vector" d="M6.33728 6.62549H5.50838C5.06871 6.62549 4.64704 6.80015 4.33614 7.11105C4.02525 7.42194 3.85059 7.84361 3.85059 8.28328V15.7434C3.85059 16.183 4.02525 16.6047 4.33614 16.9156C4.64704 17.2265 5.06871 17.4012 5.50838 17.4012H12.9685C13.4081 17.4012 13.8298 17.2265 14.1407 16.9156C14.4516 16.6047 14.6263 16.183 14.6263 15.7434V14.9145" stroke="#848484" stroke-width="1.65779" stroke-linecap="round" stroke-linejoin="round"/>
<path id="Vector_2" d="M13.7974 4.96794L16.2841 7.45463M17.4321 6.28174C17.7586 5.95529 17.942 5.51251 17.942 5.05083C17.942 4.58915 17.7586 4.14638 17.4321 3.81992C17.1057 3.49346 16.6629 3.31006 16.2012 3.31006C15.7395 3.31006 15.2967 3.49346 14.9703 3.81992L7.99512 10.7702V13.2569H10.4818L17.4321 6.28174Z" stroke="#848484" stroke-width="1.65779" stroke-linecap="round" stroke-linejoin="round"/>
</g>
</g>
</svg>
