<svg width="18" height="18" viewBox="0 0 18 18" fill="none" xmlns="http://www.w3.org/2000/svg">
<g id="emojione-v1:white-heavy-check-mark" clip-path="url(#clip0_1705_729)">
<path id="Vector" d="M16.4676 16.4733C16.7159 16.2249 16.8554 15.8881 16.8554 15.5369V1.94647C16.8554 1.94642 16.8554 1.94637 16.8554 1.94631C16.8552 1.59521 16.7157 1.25852 16.4674 1.01025C16.2191 0.761975 15.8825 0.622435 15.5314 0.622291C15.5313 0.622291 15.5312 0.622291 15.5312 0.622291H1.94045C1.58933 0.622586 1.25267 0.7622 1.00438 1.01049C0.756097 1.25877 0.616483 1.59543 0.616187 1.94656V15.5369C0.616187 15.8881 0.755685 16.2249 1.004 16.4733C1.25229 16.7216 1.58905 16.8611 1.94021 16.8612L16.4676 16.4733ZM16.4676 16.4733C16.2193 16.7216 15.8825 16.8611 15.5314 16.8612M16.4676 16.4733L15.5314 16.8612M15.5314 16.8612C15.5313 16.8612 15.5313 16.8612 15.5313 16.8612M15.5314 16.8612H15.5313M15.5313 16.8612H1.94029H15.5313Z" stroke="#848484" stroke-width="1.08638"/>
</g>
<defs>
<clipPath id="clip0_1705_729">
<rect width="17.3821" height="17.3821" fill="white" transform="translate(0.072998 0.0791016)"/>
</clipPath>
</defs>
</svg>
